<svg width="661" height="512" viewBox="0 0 661 512" fill="none" xmlns="http://www.w3.org/2000/svg">
<g clip-path="url(#clip0_117_13)">
<path d="M476.607 95.1026H428.219V17.8867L476.607 33.3299V95.1026Z" fill="#2F2E41"/>
<path d="M485.198 487.151L475.212 487.387L469.646 442.524L484.382 442.175L485.198 487.151Z" fill="#A0616A"/>
<path d="M450.938 507.984C450.938 509.671 452.135 511.039 453.611 511.039H473.432C473.432 511.039 475.383 503.198 483.336 499.824L483.885 511.039H494.109L492.871 493.005C492.871 493.005 495.606 483.358 489.925 478.426C484.245 473.494 488.846 474.181 488.846 474.181L486.611 463.02L471.16 464.836L471.047 482.357L463.548 499.748L452.55 505.18C451.571 505.664 450.938 506.766 450.938 507.984Z" fill="#2F2E41"/>
<path d="M434.02 487.151L424.034 487.387L418.468 442.524L433.204 442.175L434.02 487.151Z" fill="#A0616A"/>
<path d="M399.76 507.984C399.76 509.671 400.957 511.039 402.434 511.039H422.255C422.255 511.039 424.205 503.198 432.158 499.824L432.707 511.039H442.932L441.693 493.005C441.693 493.005 444.428 483.358 438.748 478.426C433.067 473.494 437.668 474.181 437.668 474.181L435.434 463.02L419.982 464.836L419.869 482.357L412.371 499.748L401.372 505.18C400.394 505.664 399.76 506.766 399.76 507.984Z" fill="#2F2E41"/>
<path d="M479.696 179.525L415.864 217.619L401.45 276.303L408.657 457.503H440.265L447.265 282.995L461.277 457.503H493.38L501.499 261.537C503.735 247.295 501.971 232.713 496.402 219.416L479.696 179.525Z" fill="#2F2E41"/>
<path d="M465.282 63.1865L438.514 61.1274L431.307 75.5411L410.716 80.6888L405.568 144.521C415.752 170.978 422.144 196.262 415.864 217.618L494.109 213.5L481.045 178.175C481.045 178.175 480.725 165.112 487.932 147.609C495.139 130.107 483.814 84.807 483.814 84.807L467.341 80.6888L465.282 63.1865Z" fill="#FF0000"/>
<path d="M285.046 88.0173C287.652 88.0981 290.061 87.5834 291.955 86.6615L316.737 88.9993L317.504 77.1747L292.283 76.0764C290.449 75.0389 288.077 74.3761 285.471 74.2954C279.516 74.1109 274.594 77.0331 274.477 80.8223C274.359 84.6115 279.091 87.8328 285.046 88.0173Z" fill="#A0616A"/>
<path d="M431.638 124.115C431.638 124.115 430.762 86.4456 422.5 80.7916C419.093 78.4599 366.702 77.9302 364.793 77.7324C353.023 76.5126 344.647 71.8395 334.737 71.3272C310.585 70.079 298.375 75.9399 298.375 75.9399L297.949 88.0339L431.638 124.115Z" fill="#FF0000"/>
<path d="M449.618 60.1516C461.423 60.1516 470.992 50.582 470.992 38.7774C470.992 26.9728 461.423 17.4033 449.618 17.4033C437.814 17.4033 428.244 26.9728 428.244 38.7774C428.244 50.582 437.814 60.1516 449.618 60.1516Z" fill="#A0616A"/>
<path d="M443.136 6.95007C438.538 9.84812 435.171 7.77328 431.888 9.23487C425.472 12.0905 414.64 32.1478 415.616 40.5449C417 52.4375 421.371 52.9272 421.241 61.4596C421.031 75.1607 419.943 75.1038 422.748 79.8878C425.869 85.2087 443.545 83.764 446.827 76.5485C447.474 75.125 440.283 75.6848 432.337 57.0093C428.35 47.6379 430.968 39.0984 432.337 35.3889C432.658 34.5204 432.805 28.3546 433.489 29.0388C439.489 35.0388 442.852 30.6529 446.475 30.1496C453.911 29.1166 459.51 35.1152 461.766 32.9616C463.444 31.3591 461.303 27.1221 462.117 26.8102C462.985 26.4778 465.86 31.1259 467.741 36.1252C468.955 39.3491 469.562 40.961 469.499 42.8038C469.305 48.4946 467.854 64.6296 465.283 69.3639C459.731 79.5876 466.722 83.4452 471.081 82.6999C474.602 82.0977 490.17 84.4685 491.022 82.748C491.781 81.2152 490.047 65.4492 488.225 50.792C486.035 33.1748 477.258 16.9857 463.497 5.77087C462.689 5.1132 462.088 4.66196 461.766 4.48955C461.003 4.08117 453.144 0.000402927 447.354 3.25928C445.222 4.459 445.569 5.4161 443.136 6.95007Z" fill="#2F2E41"/>
<path d="M176.136 503.837L164.277 503.836L158.636 458.093L176.139 458.094L176.136 503.837Z" fill="#FFB6B6"/>
<path d="M135.505 503.568C135.136 504.19 134.941 506.197 134.941 506.92C134.941 509.143 136.743 510.945 138.966 510.945H175.693C177.209 510.945 178.439 509.716 178.439 508.199V506.67C178.439 506.67 180.255 502.075 176.515 496.411C176.515 496.411 171.866 500.846 164.919 493.899L162.871 490.188L148.042 501.033L139.823 502.045C138.025 502.266 136.43 502.01 135.505 503.568Z" fill="#2F2E41"/>
<path d="M226.136 503.837L214.277 503.836L208.636 458.093L226.139 458.094L226.136 503.837Z" fill="#FFB6B6"/>
<path d="M185.505 503.568C185.136 504.19 184.941 506.197 184.941 506.92C184.941 509.143 186.743 510.945 188.966 510.945H225.693C227.209 510.945 228.439 509.716 228.439 508.199V506.67C228.439 506.67 230.255 502.075 226.515 496.411C226.515 496.411 221.866 500.846 214.919 493.899L212.871 490.188L198.042 501.033L189.823 502.045C188.025 502.266 186.43 502.01 185.505 503.568Z" fill="#2F2E41"/>
<path d="M228.488 215.039L141.488 214.039L132.488 271.039L154.488 468.039H183.331L189.988 284.539L201.988 471.539H231.52L244.988 258.539L228.488 215.039Z" fill="#2F2E41"/>
<path d="M597.32 495.981C599.386 496.11 600.528 493.543 598.965 492.047L598.81 491.429C598.83 491.38 598.851 491.33 598.871 491.281C600.961 486.299 608.041 486.333 610.113 491.322C611.951 495.751 614.292 500.186 614.869 504.868C615.127 506.935 615.011 509.041 614.552 511.069C618.86 501.658 621.127 491.382 621.127 481.048C621.127 478.452 620.985 475.855 620.695 473.265C620.456 471.147 620.126 469.041 619.7 466.955C617.394 455.678 612.401 444.937 605.2 435.965C601.738 434.073 598.851 431.115 597.107 427.569C596.48 426.29 595.989 424.914 595.757 423.513C596.151 423.564 597.242 417.564 596.945 417.196C597.494 416.363 598.477 415.948 599.077 415.135C602.059 411.092 606.168 411.798 608.313 417.293C612.895 419.605 612.94 423.441 610.128 427.129C608.339 429.476 608.093 432.652 606.524 435.164C606.685 435.371 606.853 435.571 607.015 435.778C609.976 439.576 612.537 443.658 614.696 447.946C614.086 443.18 614.986 437.438 616.522 433.737C618.27 429.52 621.547 425.968 624.433 422.322C627.899 417.943 635.006 419.854 635.617 425.405C635.623 425.459 635.628 425.513 635.634 425.566C635.205 425.808 634.785 426.065 634.375 426.336C632.036 427.884 632.844 431.51 635.616 431.938L635.679 431.948C635.524 433.491 635.259 435.022 634.872 436.527C638.574 450.843 630.582 456.057 619.17 456.291C618.918 456.42 618.673 456.55 618.421 456.672C619.577 459.928 620.501 463.267 621.185 466.651C621.799 469.642 622.225 472.664 622.464 475.7C622.762 479.53 622.736 483.38 622.413 487.203L622.432 487.068C623.252 482.857 625.539 478.923 628.859 476.197C633.804 472.135 640.791 470.639 646.127 467.373C648.695 465.801 651.986 467.833 651.538 470.81L651.516 470.953C650.722 471.276 649.947 471.65 649.198 472.07C648.769 472.312 648.349 472.569 647.939 472.84C645.599 474.387 646.408 478.014 649.18 478.442L649.243 478.452C649.288 478.458 649.327 478.465 649.372 478.471C648.009 481.707 646.11 484.71 643.733 487.3C641.419 499.797 631.477 500.983 620.843 497.344H620.837C619.674 502.408 617.975 507.355 615.792 512.07H597.772C597.707 511.87 597.649 511.663 597.591 511.463C599.258 511.566 600.937 511.469 602.577 511.166C601.24 509.525 599.904 507.872 598.566 506.231C598.534 506.199 598.508 506.167 598.482 506.134C597.804 505.295 597.12 504.462 596.441 503.622L596.441 503.621C596.399 501.043 596.708 498.474 597.32 495.981Z" fill="#F2F2F2"/>
<path d="M0 512.478C0 513.138 0.53003 513.668 1.19006 513.668H659.48C660.14 513.668 660.67 513.138 660.67 512.478C660.67 511.818 660.14 511.288 659.48 511.288H1.19006C0.53003 511.288 0 511.818 0 512.478Z" fill="#CCCCCC"/>
<path d="M198.988 65.5391H168.024L161.988 77.5391L132.488 91.0863L142.988 168.539L134.988 219.539H234.921L225.988 160.539L237.988 89.5391L204.988 76.5391L198.988 65.5391Z" fill="#E6E6E6"/>
<path d="M302.637 253.222C301.286 250.466 300.67 247.634 300.74 245.156L286.217 219.722L298.522 213.165L311.929 239.672C313.931 241.135 315.791 243.357 317.142 246.112C320.227 252.406 319.481 259.1 315.475 261.064C311.47 263.027 305.722 259.516 302.637 253.222Z" fill="#FFB6B6"/>
<path d="M206.909 86.1261C206.909 86.1261 216.706 76.0457 227.696 83.0605C238.687 90.0754 278.78 161.859 278.78 161.859L309.706 223.572L287.877 233.742L261.54 174.647L206.229 115.126L206.909 86.1261Z" fill="#E6E6E6"/>
<path d="M182.195 59.6896C197.637 59.6896 210.155 47.1713 210.155 31.7291C210.155 16.2869 197.637 3.76855 182.195 3.76855C166.753 3.76855 154.234 16.2869 154.234 31.7291C154.234 47.1713 166.753 59.6896 182.195 59.6896Z" fill="#FFB6B6"/>
<path d="M173.42 54.2321C173.549 56.9714 173.614 58.3411 173.193 58.5066C171.926 59.0049 155.614 49.371 153.693 42.9579C152.797 39.9668 153.554 39.9072 152.9 31.3976C152.274 23.2589 151.573 23.194 152.402 21.1805C153.323 18.9425 156.137 16.1851 161.765 10.6703C163.893 8.58515 164.956 7.54256 165.628 7.00351C167.664 5.36975 175.247 -0.716568 182.2 0.0697617C185.115 0.399372 184.616 1.56305 195.505 7.46769C196.443 7.97627 197.7 8.64763 199.437 9.41845C203.661 11.2932 206.282 11.7792 207.662 12.302C216.022 15.4704 213.569 33.1202 212.85 33.2214C212.588 33.2583 212.517 30.9696 211.145 30.7803C209.91 30.61 209.124 32.3479 208.001 32.4112C204.936 32.5839 208.34 29.6496 200.838 26.3905C197.921 25.1235 206.037 30.836 198.311 30.7433C186.23 30.5983 193.957 31.3672 189.369 33.7772C186.023 35.5349 172.563 25.8623 173.11 28.9531C173.495 31.1331 175.077 31.7607 174.849 34.2029C174.628 36.569 172.85 39.1191 171.281 39.2128C169.836 39.2992 169.043 37.2705 168.561 37.4646C168.037 37.6758 168.613 40.2215 169.744 42.837C171.18 46.1574 172.037 46.1834 172.794 48.7371C173.23 50.206 173.293 51.548 173.42 54.2321Z" fill="#2F2E41"/>
<path d="M393.794 245.012L213.636 199.175C202.12 196.245 195.134 184.491 198.064 172.975L220.477 84.8839C223.407 73.3675 235.16 66.3818 246.677 69.3119L426.835 115.149C438.351 118.079 445.337 129.832 442.407 141.349L419.994 229.44C417.064 240.956 405.311 247.942 393.794 245.012Z" fill="white"/>
<path d="M393.794 245.011L213.636 199.174C207.878 197.709 203.253 194.039 199.948 189.171C195.141 182.089 193.886 173.173 195.997 164.878L214.791 91.0076C216.902 82.7124 222.265 75.4801 229.872 71.5569C235.101 68.8605 240.919 67.8466 246.677 69.3117L426.835 115.149C438.37 118.083 445.341 129.813 442.407 141.348L419.994 229.439C417.064 240.956 405.31 247.941 393.794 245.011ZM246.184 71.2499C235.719 68.5875 238.454 78.0648 235.792 88.5293C222.802 139.584 249.669 192.367 298.6 211.887C325.013 222.425 346.983 231.038 346.983 231.038C383.573 240.347 420.782 218.232 430.091 181.642L440.468 140.855C443.131 130.391 436.806 119.749 426.341 117.087L246.184 71.2499Z" fill="#3F3D56"/>
<path d="M330.478 140.669C329.223 130.348 319.839 122.999 309.519 124.255C299.296 125.498 291.994 134.718 293.077 144.922L292.777 144.958L297.324 182.332L331.714 178.148C332.801 178.207 333.907 178.178 335.025 178.042C345.345 176.786 352.694 167.402 351.438 157.082C350.183 146.762 340.799 139.413 330.478 140.669Z" fill="#FF0000"/>
<path d="M264.56 493.723C263.104 489.969 258.88 488.108 255.127 489.564C251.409 491.007 249.55 495.164 250.93 498.89L250.821 498.932L256.096 512.524L268.602 507.67C269.016 507.588 269.428 507.472 269.835 507.314C273.588 505.857 275.45 501.634 273.993 497.881C272.537 494.128 268.313 492.266 264.56 493.723Z" fill="#E6E6E6"/>
<path d="M544.56 493.723C543.104 489.969 538.88 488.108 535.127 489.564C531.409 491.007 529.55 495.164 530.93 498.89L530.821 498.932L536.096 512.524L548.603 507.67C549.016 507.588 549.428 507.472 549.835 507.314C553.588 505.857 555.45 501.634 553.993 497.881C552.537 494.128 548.313 492.266 544.56 493.723Z" fill="#E6E6E6"/>
<path d="M315.712 248.386C328.967 248.386 339.712 237.641 339.712 224.386C339.712 211.131 328.967 200.386 315.712 200.386C302.457 200.386 291.712 211.131 291.712 224.386C291.712 237.641 302.457 248.386 315.712 248.386Z" fill="#FF0000"/>
<path d="M206.612 127.053C204.036 128.722 201.298 129.67 198.829 129.895L175.301 147.338L167.328 135.9L192.054 119.437C193.268 117.276 195.253 115.164 197.828 113.496C203.711 109.684 210.447 109.63 212.872 113.373C215.298 117.117 212.495 123.242 206.612 127.053Z" fill="#FFB6B6"/>
<path d="M151.504 86.3484C151.504 86.3484 133.504 84.3484 130.504 91.3484C127.504 98.3484 121.504 168.348 121.504 168.348L131.504 185.348L197.083 135.716L183.802 122.436L155.697 135.716L151.504 86.3484Z" fill="#E6E6E6"/>
<path d="M412.217 108.967C414.356 111.167 416.815 112.702 419.171 113.471L438.224 135.716L448.544 126.34L428.106 104.785C427.403 102.407 425.938 99.9064 423.799 97.7064C418.913 92.6806 412.359 91.1272 409.16 94.2368C405.962 97.3463 407.331 103.941 412.217 108.967Z" fill="#A0616A"/>
<path d="M475.006 81.5576C475.006 81.5576 492.999 83.6165 494.365 91.1088C495.73 98.6011 485.991 168.179 485.991 168.179L472.456 182.525L419.577 119.535L435.482 109.546L459.924 128.752L475.006 81.5576Z" fill="#FF0000"/>
<path d="M232.392 162.342C240.679 162.342 247.397 155.625 247.397 147.338C247.397 139.051 240.679 132.333 232.392 132.333C224.105 132.333 217.388 139.051 217.388 147.338C217.388 155.625 224.105 162.342 232.392 162.342Z" fill="#E6E6E6"/>
</g>
<defs>
<clipPath id="clip0_117_13">
<rect width="660.67" height="513.668" fill="white"/>
</clipPath>
</defs>
</svg>
